<svg xmlns="http://www.w3.org/2000/svg" xmlns:xlink="http://www.w3.org/1999/xlink" width="16" height="16" id="plus"><defs><linearGradient id="b" x1="46.208" x2="55.005" y1="113.61" y2="113.61" gradientTransform="rotate(45 -1094.452 527.656)" gradientUnits="userSpaceOnUse" xlink:href="#a"></linearGradient><linearGradient id="a"><stop offset="0" stop-color="#8ccc44"></stop><stop offset="1" stop-color="#5cb450"></stop></linearGradient></defs><path d="M8.71 1039.052a1 1 0 0 0-1.707.721v3.784H3.218a1 1 0 1 0 0 2h3.785v3.786a1 1 0 1 0 2 0v-3.784h3.784a1 1 0 0 0 .7-1.728 1 1 0 0 0-.7-.272H9.002v-3.784a1 1 0 0 0-.293-.721z" style="line-height:normal;text-indent:0;text-align:start;text-decoration-line:none;text-decoration-style:solid;text-decoration-color:#000;text-transform:none;block-progression:tb;white-space:normal;isolation:auto;mix-blend-mode:normal;solid-color:#000;solid-opacity:1" fill="url(#b)" fill-rule="evenodd" color="#000" enable-background="accumulate" font-family="sans-serif" font-weight="400" overflow="visible" transform="translate(0 -1036.362)"></path></svg>